/* XPM */
static char *_522914336454[] = {
/* columns rows colors chars-per-pixel */
"16 16 125 2 ",
"   c #141D2C",
".  c #141F2F",
"X  c #14202F",
"o  c #18212F",
"O  c #152130",
"+  c #162636",
"@  c #162239",
"#  c #182A3C",
"$  c #212937",
"%  c #232B39",
"&  c #28303D",
"*  c #132E4F",
"=  c #17374F",
"-  c #19394E",
";  c #0B285E",
":  c #163954",
">  c #2F3744",
",  c #2C3845",
"<  c #2B3D4C",
"1  c #373E48",
"2  c #373F4B",
"3  c #143C64",
"4  c #133E76",
"5  c #1D4559",
"6  c #39414D",
"7  c #3A424D",
"8  c #3D434D",
"9  c #2D4557",
"0  c #1D4867",
"q  c #16496F",
"w  c #1E5775",
"e  c #20566A",
"r  c #3A5A67",
"t  c #245D75",
"y  c #205778",
"u  c #444650",
"i  c #474A51",
"p  c #424B55",
"a  c #4C5259",
"s  c #56585E",
"d  c #4B5661",
"f  c #405A68",
"g  c #565A62",
"h  c #505866",
"j  c #575D67",
"k  c #5F6168",
"l  c #5E636D",
"z  c #666971",
"x  c #6B7179",
"c  c #02328A",
"v  c #07419A",
"b  c #084C98",
"n  c #0A499C",
"m  c #0C4B9F",
"M  c #135496",
"N  c #145796",
"B  c #185F9B",
"V  c #1B6793",
"C  c #18609B",
"Z  c #18609D",
"A  c #2F6B84",
"S  c #21688B",
"D  c #2D7383",
"F  c #0C4EA0",
"G  c #0F55A5",
"H  c #1158A6",
"J  c #1B68A3",
"K  c #1E6FA6",
"L  c #1560AA",
"P  c #1664AC",
"I  c #1361B0",
"U  c #176AB5",
"Y  c #186BB0",
"T  c #1D75B3",
"R  c #1C75B4",
"E  c #227DB1",
"W  c #217DB8",
"Q  c #1F7FC1",
"!  c #318398",
"~  c #2F88A0",
"^  c #2D91B1",
"/  c #2991B7",
"(  c #2A92B9",
")  c #2285C1",
"_  c #2489C0",
"`  c #268EC7",
"'  c #2189C8",
"]  c #239CCD",
"[  c #2A9AD0",
"{  c #2B9ED3",
"}  c #2BA7CA",
"|  c #33ADC3",
" . c #2FA7D8",
".. c #2EAFDE",
"X. c #33B9D8",
"o. c #35B8E2",
"O. c #34BDE6",
"+. c #3CC4DB",
"@. c #35C6EC",
"#. c #3ACEE9",
"$. c #3ECEEF",
"%. c #42D8F4",
"&. c #42E7FE",
"*. c #878584",
"=. c #88878D",
"-. c #83888F",
";. c #908F8E",
":. c #8D9198",
">. c #92979C",
",. c #999898",
"<. c #A49998",
"1. c #ADADB0",
"2. c #B4B6BB",
"3. c #B6B9BD",
"4. c #C8C9CB",
"5. c #D5CCCA",
"6. c #DCD3D2",
"7. c #D6D7D8",
"8. c #D7D8DA",
"9. c #DCDDDF",
"0. c #E9E9E9",
"q. c gray94",
"w. c #F6F6F6",
"e. c #F9FAFA",
"r. c #FDFDFB",
/* pixels */
"            6 2.3.6             ",
"        $ -.q.e.r.e.:.%         ",
"      z 4.0.7.z z 8.r.9.x +     ",
"  = 9 >.6.=.&   X j 0.w.r.h @   ",
"  _ ] A <       l 9.0.1.6 4 c O ",
"  W [ ..} t     *.9.x     b v   ",
"  R E S o.$.| 5 d 5.g     N F   ",
"  Y K   - ^ %.&.! r ,     B H   ",
"  L J       e +.&.X.w O   J P O ",
"  G Z         + D #.@.( : K Y   ",
"  F M           2 r ~ O. .` R O ",
"  v G 3         k <.> 9 / { )   ",
"  ; n I Z :     s ,.u   O w w   ",
"    * 4 U Q V # a ;.8           ",
"        * B ' w p *.2           ",
"          O q 0 6 i O           "
};
