/* XPM */
static char *_522914351681[] = {
/* columns rows colors chars-per-pixel */
"64 64 205 2 ",
"   c #141D2C",
".  c #17202E",
"X  c #18212F",
"o  c #152333",
"O  c #1B2432",
"+  c #1F2836",
"@  c #14243A",
"#  c #16293C",
"$  c #1B293C",
"%  c #1B2739",
"&  c #212936",
"*  c #252D3A",
"=  c #2B323E",
"-  c #27303D",
";  c #1E2D42",
":  c #132844",
">  c #1A3245",
",  c #18364A",
"<  c #0D2A5C",
"1  c #14365B",
"2  c #163B5D",
"3  c #173A57",
"4  c #0E214A",
"5  c #2D3441",
"6  c #333A45",
"7  c #363D49",
"8  c #393F49",
"9  c #313744",
"0  c #041E7A",
"q  c #082868",
"w  c #0D3666",
"e  c #153E64",
"r  c #143D6A",
"t  c #0A3572",
"y  c #062475",
"u  c #1A435A",
"i  c #1C4355",
"p  c #3B424D",
"a  c #37414E",
"s  c #3E4551",
"d  c #194363",
"f  c #1A4B6C",
"g  c #184467",
"h  c #1D546C",
"j  c #1E5675",
"k  c #215769",
"l  c #276A7D",
"z  c #444A55",
"x  c #4A4E56",
"c  c #454B57",
"v  c #4C515B",
"b  c #4B4F56",
"n  c #505661",
"m  c #535A64",
"M  c #5A5E65",
"N  c #595F69",
"B  c #4E5560",
"V  c #5D626C",
"C  c #5D6167",
"Z  c #636469",
"A  c #686A6E",
"S  c #626469",
"D  c #6B6D72",
"F  c #656A74",
"G  c #6D727B",
"H  c #6F7173",
"J  c #727475",
"K  c #74767A",
"L  c #7B7C7D",
"P  c #76777A",
"I  c #042D83",
"U  c #032681",
"Y  c #043C8B",
"T  c #043686",
"R  c #053D9A",
"E  c #033896",
"W  c #08448C",
"Q  c #185884",
"!  c #0A4D93",
"~  c #09449F",
"^  c #084798",
"/  c #0D569A",
"(  c #115D9C",
")  c #134B81",
"_  c #176399",
"`  c #18628C",
"'  c #226682",
"]  c #236886",
"[  c #236E93",
"{  c #237699",
"}  c #257389",
"|  c #0946A0",
" . c #0B4CA3",
".. c #0747A2",
"X. c #0D52A6",
"o. c #0F55A9",
"O. c #0F5CAB",
"+. c #115BAC",
"@. c #105FA2",
"#. c #146BA2",
"$. c #1461AF",
"%. c #1567A6",
"&. c #1772AC",
"*. c #1564B1",
"=. c #166AB4",
"-. c #186DB7",
";. c #196FB8",
":. c #1B74BA",
">. c #1D7BBE",
",. c #237DAF",
"<. c #7C7E82",
"1. c #767B83",
"2. c #1F7FC1",
"3. c #807F84",
"4. c #2A8499",
"5. c #2986A9",
"6. c #2586B4",
"7. c #2E97B9",
"8. c #329BB2",
"9. c #30A5BE",
"0. c #7E8289",
"q. c #1E80C2",
"w. c #2184C4",
"e. c #2389C6",
"r. c #248DC9",
"t. c #2692CB",
"y. c #2896CE",
"u. c #2999CF",
"i. c #2A96C5",
"p. c #2A9CD1",
"a. c #279BD0",
"s. c #309FC4",
"d. c #34A9C7",
"f. c #2DA3D5",
"g. c #2FA8D8",
"h. c #2FA7D8",
"j. c #31ACDB",
"k. c #30A6D2",
"l. c #33B2DE",
"z. c #39BBD8",
"x. c #36B3CA",
"c. c #34B6E1",
"v. c #36BAE3",
"b. c #38BEE6",
"n. c #39C1DF",
"m. c #39C2E7",
"M. c #3AC5E9",
"N. c #3DCBED",
"B. c #3FD0EF",
"V. c #3FD2F0",
"C. c #40CDE3",
"Z. c #41D5F2",
"A. c #43DBF6",
"S. c #44DEF8",
"D. c #43D6EE",
"F. c #46E3FB",
"G. c #48E9FE",
"H. c #48E7FE",
"J. c #838384",
"K. c #85868A",
"L. c #8B8B8C",
"P. c #898887",
"I. c #868B92",
"U. c #8C8E93",
"Y. c #8C9096",
"T. c #8F9399",
"R. c #939394",
"E. c #96999D",
"W. c #9C9C9C",
"Q. c #969698",
"!. c #908E8F",
"~. c #989CA1",
"^. c #A09FA1",
"/. c #9FA1A3",
"(. c #A4A3A4",
"). c #A2A4A9",
"_. c #ABABAC",
"`. c #A8A8AB",
"'. c #AAADB1",
"]. c #A7AAB0",
"[. c #AFB1B5",
"{. c #B3B3B5",
"}. c #BBBBBD",
"|. c #B5B7BA",
" X c #BCBEC1",
".X c #BFC1C2",
"XX c #C3C4C5",
"oX c #CBCCCC",
"OX c #C4C6C9",
"+X c #CDCED1",
"@X c #D3D3D4",
"#X c #D7D9DA",
"$X c #DBDBDC",
"%X c #D6D6D8",
"&X c #D2D0CF",
"*X c #DDDEE0",
"=X c #DFE0E1",
"-X c #E3E4E4",
";X c #E5E6E8",
":X c #EBECEC",
">X c #E9E8E8",
",X c #EFEFF0",
"<X c #F4F4F4",
"1X c #FCFCFC",
"2X c None",
/* pixels */
"2X2X2X2X2X2X; O               X                       8 ;X+X%   X OX>X5 .                                       o ; 2X2X2X2X2X2X",
"2X2X2X2X>                                             s 1X;XO   . *X1X6                                             . ; 2X2X2X2X",
"2X2X2X;                                               a 1X-X%   . #X1X6                                                 $ 2X2X2X",
"2X2X$                                                 p 1X=XO   . #X1X6                                                   $ 2X2X",
"2X2X                                                  8 1X=X  5   %X1X9                                                     2X2X",
"2XO                                                 . 8 1X;X/.,X].-X1X5                                                       2X",
"2X                                                    8 <X1X1X*X1X1X1X6                                                       2X",
"O                                                   N +X1X%XV   m +X1X$XV                                                     % ",
".                                               8 '.<X<XI.o * 0.5   0.,X1X[.a .                                                 ",
"                                            ; Y.<X<X).5   0.:X1X,XI.  * ~.1X<XT.5                                               ",
"                                          F *X<XOXv   m @X1X1X1X1X1X*XV   s .X<X*XG o                                           ",
"                                      v  X,X#XF   7 [.1X1X1X1X1X1X1X1X1X Xs . V @X<XXXB                                         ",
"                                  5 ~.,X,XY.+ O I.,X<X<X<X1X1X1X1X1X1X1X1X1X~.& O I.,X,X/.6                                     ",
"                              O 0.-X,X`.7   F #X,X,X<X<X<X<X<X<X1X1X1X1X1X1X1X>X1.  5 /.:X;XI.&                                 ",
"                            N OX:XoXn   z |.:X:X:X:X,X,X,X<X*XT.*X1X<X1X1X1X1X1X1X+Xn   v .X:X+XN                               ",
"X                       s '.;X*XG . 5 E.-X-X-X;X>X;X:X,X:XY.=   * U.,X1X1X1X1X1X1X1X1X|.7   F %X>X[.z                           ",
"                    * I.-X>XE.5 O G @X=X=X=X=X-X-X>X>X'.z .         z '.<X<X<X1X1X1X1X1X1XI.+ + Y.-X>XY.5                       ",
"X               X G @X-X{.a   + `.$X#X$X$X=X=X=X-X}.C .                 m }.<X<X<X<X1X1X1X1X;X1.  z _.>X#XK O                   ",
"                '.=X@XC   > @   = L.@X#X$X$X$X&XK O                     & T.,X<X<X<X<X1X<X1X1X|.*     n oX=X_.                  ",
"X               $X}.+ # ` u.i.h     a ^.&X#XR.=                     % K #X,X:X<X:X<X<X<X<X.Xn     4 q O + {.$X                  ",
"                @X`.  _ t.p.f.j.6.u     M v                       v  X;X>X>X:X:X:X:X<X#XP     @ t E E 0   ~.%X                  ",
"                @X`.  &.r.p.p.f.l.l.{ >                         + +X-X-X-X-X-X>X:X-XI.*   @ w ~  .R R U   (.@X                  ",
"                &X`.  #.r.t.p.f.g.l.v.l.' %                     & oX$X*X-X-X-X-X`.a       w +.o. .| R I   ^.&X                  ",
".               +X`.  #.e.r.y.p.k.g.l.v.m.d.k                   & oX$X$X$X*X}.n             1 o.X. .R I   ~.+X                  ",
"                oX(.  _ w.r.t.p.f.f.j.c.b.M.N.8.i . . .         + XX%X#X$X$Xz               1 +.X.X.| T   W.&X                  ",
".               OX(.  _ 2.e.r.y.f.f.g.l.c.m.M.B.B.4.>           + XX@X%X%X$Xx               3 +.o.X.| T   Q.oX                  ",
"                oX/.  ( >.w.r.t._ 5.g.l.l.m.m.N.V.V.N.l . .   . & OX@X&X@X@Xz               1 *.+.o. .Y   Q.oX                  ",
".               XXW.. ( >.2.e.r.d o j i.l.c.m.M.B.B.F.F.n.h   . O ~.&X&X&X@Xz               1 *.+.+.X.Y   Q.XX                  ",
".               XX^.. / :.q.w.e.h     # [ l.v.m.N.B.A.F.H.H.8.,     D }.&XoXz               2 =.*.+.o.W   R.XX                  ",
"                XXW.. / :.:.q.w.f       . , 5.m.M.B.V.S.F.G.G.D.4.#   * <.oXb               2 ;.=.$.o.^   R.XX                  ",
".               .XW.  ! &.:.>.w.f       .     h d.N.B.V.A.F.G.F.A.z.h     s 9               2 :.=.*.+.^   R..X                  ",
"                }.W.  ! =.;.>.2.d               o ' n.V.A.F.G.H.S.A.V.9.u                   e :.-.=.*.!   !.}.                  ",
"                }.Q.  ! =.-.:.>.d                   , 5.D.F.F.G.H.A.Z.N.M.{ > . .           u 2.:.-.=.^   L.}.                  ",
".               }.Q.  ! *.=.-.:.g                   .   i d.F.G.H.F.A.D.B.M.l.' o .         d q.:.-.*./   L.}.                  ",
".               |.R.  W +.*.=.:.g                           l M.G.G.A.Z.V.M.m.z.i.d         u q.2.:.-./   P.|.                  ",
"                {.R.  Y +.$.-.-.e                             # 4.A.F.A.V.N.M.m.c.j.5.,     d q.2.:.:./   P.|.                  ",
".               {.!.  W o.+.*.-.e                                 i 9.F.A.V.N.M.v.c.j.f.] @ 3 e.q.2.:.@.  K.{.                  ",
".               {.!.  T X.+.*.*.e                                     k x.V.N.M.b.v.l.g.f.6.{ r.w.2.:.@.  J.{.                  ",
"                _.!.  T  .o.+.*.e                               X A =     } n.N.M.v.c.j.f.f.p.t.r.q.2.%.  J.'.                  ",
"              . _.L.. T  .o.o.*.1                               & (.(.C O   > 4.M.b.c.c.j.f.p.y.r.e.q.%.  J._.                  ",
".               _.L.  T ~ X.o.+.r                               X Q.(.(.R.b .   i 8.z.c.l.h.f.u.y.e.w.%.  J._.                  ",
".               (.P.  I ~ .. .+.O.) :                           & R.^.(.(.(.8       h s.l.j.f.p.y.t.e.&.  L _.                  ",
"                (.K.  I ^ |  .o.O.*.$.g o                       O !.W.^.(.(.p         o ' f.f.f.p.t.r.&.  L (.                  ",
".               (.P.  y E ~ |  .o.+.=.-.%.2                     O L.W.W.W.^.=             > { f.p.y.t._   L (.                  ",
"                (.L.O   < E ~  .X.+.+.-.-.:._ >                 O L.Q.Q.W.W.a                 u 6.t.Q . X J.(.                  ",
"                <.`.R.z   o t .. .+.+.*.-.:.>.2.Q :             O P.R.R.Q.Q.6 .                 o % . p !.(.J.                  ",
"                  M E.(.L 5 . : Y X.+.*.*.-.:.2.r.6.f o         O J.R.R.R.R.a .                 . = P (.W.S X                 X ",
".                   * A ^.^.A O . < ^ +.*.-.:.:.q.q.r.,.u       X J.L.!.!.!.= .               + S ^.^.D *                       ",
"                        = L W.Q.b X X d @.*.-.:.>.w.r.t.u.[ o   O <.P.P.!.!.= .             c U.W.J.7                           ",
".                       . . z P.W.P.8   # W =.:.:.q.w.r.t.y.#   O L P.P.P.P.8 .         8 0.W.L.z .                             ",
"                            . X M R.W.H &   , ( :.>.w.e.t.i.#   X L J.J.P.P.= X     * A W.W.M +                                 ",
"                            . .   * A R.Q.C o   g =.2.w.r.e.#   O J J.L J.L *   X m !.W.A *                                     ",
"                                      8 L R.P.8   o Q 2.w.e.#   O P J.L m O . p P.Q.0.p                                         ",
"                                        X b P.R.L 5   > _ r.#   O L A = . = J R.P.x .                                           ",
"                                        X   O C R.R.S O   2 #   O = . X C R.!.C &                                               ",
"X .                                             - A L.P.b .     X . x P.!.D =                                                 . ",
"o                                                   8 L !.J 8 X = L !.J.p                                                     . ",
"2X                                                    = P.P.P.L L.P.P.= .                                                     2X",
"2XX                                                   * P.L C J.S P P.=                                                       2X",
"2X2X                                                X * P.J   & . H J.=                                                     2X2X",
"2X2X$                                                 & J.J X   . H J.=                                                   % 2X2X",
"2X2X2X;   .                                           * J.J X     H J.=                                                 + 2X2X2X",
"2X2X2X2X> X                                           * L J X     H L =                                             o ; 2X2X2X2X",
"2X2X2X2X2X2X$ .                       X               * J A X   . S J *     .   X                               O ; 2X2X2X2X2X2X"
};
