/* XPM */
static char *_522914346555[] = {
/* columns rows colors chars-per-pixel */
"32 32 180 2 ",
"   c #141D2C",
".  c #17202E",
"X  c #18212F",
"o  c #152334",
"O  c #1B2433",
"+  c #172837",
"@  c #162B3B",
"#  c #1D2B3C",
"$  c #252D3B",
"%  c #212937",
"&  c #2A313E",
"*  c #1E2E44",
"=  c #132F4F",
"-  c #183244",
";  c #18364B",
":  c #1B2E53",
">  c #153453",
",  c #173855",
"<  c #1B3A53",
"1  c #193D59",
"2  c #19365C",
"3  c #2D3542",
"4  c #22354C",
"5  c #2C3B4C",
"6  c #243645",
"7  c #343A46",
"8  c #353D49",
"9  c #393F49",
"0  c #20385E",
"q  c #21325B",
"w  c #0A356A",
"e  c #153D62",
"r  c #073578",
"t  c #233C63",
"y  c #1C4559",
"u  c #3B414B",
"i  c #244759",
"p  c #3B4552",
"a  c #1D4F68",
"s  c #144477",
"d  c #1E5A7A",
"f  c #254366",
"g  c #234A64",
"h  c #264668",
"j  c #264A6A",
"k  c #294C6B",
"l  c #2A526F",
"z  c #275262",
"x  c #266B7D",
"c  c #444A55",
"v  c #494E57",
"b  c #454D5C",
"n  c #454A55",
"m  c #4C525C",
"M  c #46505E",
"N  c #55585E",
"B  c #4D5560",
"V  c #425160",
"C  c #565B63",
"Z  c #595C63",
"A  c #5D636C",
"S  c #586177",
"D  c #5D6E7B",
"F  c #63666B",
"G  c #6A6C6F",
"H  c #66696C",
"J  c #666B73",
"K  c #6B6E74",
"L  c #6A6F78",
"P  c #6D727B",
"I  c #6F7173",
"U  c #717275",
"Y  c #797777",
"T  c #73767C",
"R  c #787A7D",
"E  c #817F7F",
"W  c #043989",
"Q  c #002A92",
"!  c #00399B",
"~  c #1A5987",
"^  c #02439F",
"/  c #1F6996",
"(  c #256C86",
")  c #23728F",
"_  c #287E97",
"`  c #054BA5",
"'  c #0A4EA2",
"]  c #0B53A9",
"[  c #0C5CAE",
"{  c #0C51A6",
"}  c #115CAC",
"|  c #1763A6",
" . c #1974AE",
".. c #0F64B2",
"X. c #1464B2",
"o. c #1269B4",
"O. c #166DB7",
"+. c #1574BC",
"@. c #1A73B9",
"#. c #1D7ABE",
"$. c #1679BF",
"%. c #267FA7",
"&. c #7C7F84",
"*. c #197EC2",
"=. c #2783A4",
"-. c #298CA9",
";. c #2785B0",
":. c #7F8083",
">. c #1C82C4",
",. c #1B8DCB",
"<. c #2185C4",
"1. c #258EC9",
"2. c #2389C7",
"3. c #2692CC",
"4. c #2897CE",
"5. c #2A9DD2",
"6. c #31A5CA",
"7. c #35B4C5",
"8. c #2CA3D6",
"9. c #2FA9D9",
"0. c #31A8D0",
"q. c #31ADDB",
"w. c #36BBD3",
"e. c #33B6DE",
"r. c #2FB5E1",
"t. c #37BBE4",
"y. c #38BFE6",
"u. c #34B5E0",
"i. c #3AC4E3",
"p. c #3AC4E9",
"a. c #3AC7E7",
"s. c #3BCEF0",
"d. c #3FD8F5",
"f. c #41D5F3",
"g. c #43DCF7",
"h. c #45E4FB",
"j. c #48E7FD",
"k. c #48E9FE",
"l. c #828283",
"z. c #83858A",
"x. c #85888E",
"c. c #8B8C8D",
"v. c #898786",
"b. c #858A91",
"n. c #8D8E92",
"m. c #8E9298",
"M. c #929394",
"N. c #93969A",
"B. c #96999E",
"V. c #9A9B9D",
"C. c #9E9595",
"Z. c #9A9CA1",
"A. c #979AA0",
"S. c #9FA2A5",
"D. c #A2A2A4",
"F. c #A3A6AB",
"G. c #ABAAAD",
"H. c #ADB0B3",
"J. c #B3B5B9",
"K. c #B7B9BC",
"L. c #B8BABE",
"P. c #B4B5B7",
"I. c #BCBEC0",
"U. c #C0BFC1",
"Y. c #C2C3C6",
"T. c #C4C6C8",
"R. c #C8C9CB",
"E. c #D5CCCA",
"W. c #CECFD0",
"Q. c #D3D4D5",
"!. c #D6D7DA",
"~. c #D9D7D8",
"^. c #DCDDDD",
"/. c #E0D9D7",
"(. c #E3E3E3",
"). c #EAEAEA",
"_. c #E7E8E9",
"`. c #F3F3F3",
"'. c #FCFCFC",
"]. c None",
/* pixels */
"].].* O                   . T.b u I.. .                 o * ].].",
"].#                       . !.b p R..                       + ].",
"].                        . Q.A.A.Y..                         ].",
".                         m (.F.F.^.M                         X ",
"                      5 S.J.S b.b.A J.S.8                       ",
"                  # x.I.T K !.'.'.^.L &.I.b.#                   ",
"                L I.x.A J.`.`.'.'.'.'.T.S :.I.L                 ",
"            M P.A.C m.(.).`.(.:.&._.'.'.'.F.A B.H.N             ",
"        3 V.F.p K ~.^.(.(.B.3     & n.`.'.'.`.B.J G.D.7         ",
"        Y.D l g 5 n.^.G.u         X T _.).`.'.K.# * S I.        ",
"        F.k ,.8.-.i & .         3 Y._._.).R.M - r Q q D.        ",
"        D.k ,.5.9.r.=.-         n ^.(.W.K     w ' ! t Z.        ",
"        D.k >.3.8.9.y.i._ @ .   n !.~.P       = } ^ t V.        ",
"        V.k $.2.d =.r.p.f.a.x . 9 E.Q.L       = } ` t V.        ",
"        V.h @.<.1   a 6.a.f.j.w.i 8 D.J       > o.] f N.        ",
"        N.f o.#.1     o ( i.g.k.h.-.4 O       , @.[ t M.        ",
"        M.t X.@.,         @ -.h.k.d.p.) @     , @...f n.        ",
"        n.t [ O.,             y 7.h.s.p.0.d   , >.O.f c.        ",
"        n.t { X.,               . z w.s.p.q.;.d 2.+.g x.        ",
"        c.2 ' } >               8 A # x e.t.q.5.1.>.k z.        ",
"        x.2 ^ { s o             u D.C.7 + =.q.0.5.>.k :.        ",
"        z.: ! ' [ | e           7 V.V.N     ; =.5.,.g :.        ",
"        n.b : W ] X.O.| >       7 M.V.m         y g M c.        ",
"        $ T R 8 2 ^ X.#.<./ -   7 c.M.v         3 T Y &       . ",
"            9 E F 6 s o.*.2.3.- 3 v.v.v     & G :.u             ",
"                v E N ; ~ *.3., & l.l.u   Z :.m                 ",
"                  X N Y p q  ., & K 9 n R Z O                   ",
"X                   . $ F K 5 O X 9 G F &                       ",
"                          7 l.H F E 7                         X ",
"].                        . U N N U                           ].",
"].#                         G & & U .                       + ].",
"].].* O               .     H & $ H X                   X * ].]."
};
